<svg xmlns="http://www.w3.org/2000/svg" width="70.651" height="38.842" viewBox="0 0 70.651 38.842"><g transform="translate(-409.5 -1302.936)"><g transform="translate(411 1304.436)"><path d="M1.5,17.873S7.436,6,17.825,6,34.15,17.873,34.15,17.873,28.214,29.746,17.825,29.746,1.5,17.873,1.5,17.873Z" transform="translate(-1.5 -6)" fill="none" stroke="#4dedff" stroke-linecap="round" stroke-linejoin="round" stroke-width="3"/><path d="M22.4,17.952A4.452,4.452,0,1,1,17.952,13.5,4.452,4.452,0,0,1,22.4,17.952Z" transform="translate(-1.627 -6.079)" fill="none" stroke="#4dedff" stroke-linecap="round" stroke-linejoin="round" stroke-width="3"/></g><path d="M25.246,10.57V4.5H3.375V31.827H46.091V10.57ZM12.124,28.789H7.749V25.75h4.374Zm0-6.07H7.749V19.68h4.374Zm0-6.07H7.749V13.609h4.374Zm0-6.078H7.749V7.532h4.374Zm8.749,18.218H16.5V25.75h4.374Zm0-6.07H16.5V19.68h4.374Zm0-6.07H16.5V13.609h4.374Zm0-6.078H16.5V7.532h4.374ZM41.716,28.789H25.246V25.75h4.374V22.718H25.246V19.68h4.374V16.641H25.246V13.609h16.47ZM37.856,16.648H33.481v3.039h4.374Zm0,6.07H33.481v3.039h4.374Z" transform="translate(434.06 1309.951)" fill="#fff"/></g></svg>