<svg id="instagram-social-network-logo-of-photo-camera" xmlns="http://www.w3.org/2000/svg" width="54.761" height="54.761" viewBox="0 0 54.761 54.761">
  <g id="Group_11" data-name="Group 11">
    <ellipse id="Ellipse_3" data-name="Ellipse 3" cx="8.103" cy="7.853" rx="8.103" ry="7.853" transform="translate(19.316 19.441)" fill="#fff"/>
    <path id="Path_11" data-name="Path 11" d="M49.137,46.783A12.352,12.352,0,0,1,36.594,58.935,12.352,12.352,0,0,1,24.052,46.783a11.8,11.8,0,0,1,.518-3.462H20.863V60.367a1.608,1.608,0,0,0,1.6,1.6h28.1a1.609,1.609,0,0,0,1.605-1.6V43.321H48.619A11.82,11.82,0,0,1,49.137,46.783Z" transform="translate(-9.175 -19.052)" fill="#fff"/>
    <path id="Path_12" data-name="Path 12" d="M63.906,28.844h4.561a1.821,1.821,0,0,0,1.816-1.816V22.68a1.821,1.821,0,0,0-1.816-1.817H63.906a1.821,1.821,0,0,0-1.817,1.817v4.348A1.821,1.821,0,0,0,63.906,28.844Z" transform="translate(-27.306 -9.175)" fill="#fff"/>
    <path id="Path_13" data-name="Path 13" d="M27.38,0a27.38,27.38,0,1,0,27.38,27.38A27.38,27.38,0,0,0,27.38,0Zm15,47.557H12.384A5.057,5.057,0,0,1,7.2,42.378V12.384A5.056,5.056,0,0,1,12.384,7.2H42.377a5.057,5.057,0,0,1,5.18,5.179V42.379A5.057,5.057,0,0,1,42.377,47.557Z" fill="#fff"/>
  </g>
</svg>
