<svg xmlns="http://www.w3.org/2000/svg" width="40.2" height="28" viewBox="0 0 40.2 28"><g transform="translate(-868.3 -1324.5)"><path d="M18,8.85A3.15,3.15,0,1,1,14.85,12,3.15,3.15,0,0,1,18,8.85m0,13.5c4.455,0,9.15,2.19,9.15,3.15v1.65H8.85V25.5c0-.96,4.695-3.15,9.15-3.15M18,6a6,6,0,1,0,6,6A6,6,0,0,0,18,6Zm0,13.5c-4.005,0-12,2.01-12,6V30H30V25.5C30,21.51,22.005,19.5,18,19.5Z" transform="translate(862.3 1318.5)" fill="#4dedff"/><path d="M20,20a7,7,0,1,0-7-7A7,7,0,0,0,20,20Zm0,3.5c-4.673,0-14,2.345-14,7V34H34V30.5C34,25.845,24.673,23.5,20,23.5Z" transform="translate(874.5 1318.5)" fill="#fff"/></g></svg>