<svg id="linkedin-logo" xmlns="http://www.w3.org/2000/svg" width="54.761" height="54.761" viewBox="0 0 54.761 54.761">
  <path id="Path_14" data-name="Path 14" d="M27.38,0a27.38,27.38,0,1,0,27.38,27.38A27.38,27.38,0,0,0,27.38,0ZM17.121,45.919h-7.7V21.153h7.7ZM13.274,17.767a4.463,4.463,0,1,1,4.46-4.464A4.464,4.464,0,0,1,13.274,17.767ZM45.95,45.919H38.259V33.875c0-2.872-.053-6.566-4-6.566-4,0-4.619,3.128-4.619,6.358V45.918H21.949V21.153h7.383v3.384h.1a8.087,8.087,0,0,1,7.283-4c7.794,0,9.233,5.129,9.233,11.8V45.919Z" fill="#fff"/>
</svg>
