<svg xmlns="http://www.w3.org/2000/svg" width="57.643" height="28.75" viewBox="0 0 57.643 28.75"><g transform="translate(-357.75 -3374.25)"><path d="M24.268,16.607a4.554,4.554,0,1,0-4.554-4.554A4.535,4.535,0,0,0,24.268,16.607Zm-12.143,0a4.554,4.554,0,1,0-4.554-4.554A4.535,4.535,0,0,0,12.125,16.607Zm0,3.036C8.588,19.643,1.5,21.419,1.5,24.955V28.75H22.75V24.955C22.75,21.419,15.662,19.643,12.125,19.643Zm12.143,0c-.44,0-.941.03-1.472.076a6.405,6.405,0,0,1,2.99,5.237V28.75h9.107V24.955C34.893,21.419,27.8,19.643,24.268,19.643Z" transform="translate(380.5 3374.25)" fill="#2c3e50"/><path d="M26.536,2.25A4.973,4.973,0,0,0,22.8,10.5a4.914,4.914,0,0,0,2.686,1.582v3.03L18,19.005l-7.481-3.9V12.08A4.967,4.967,0,1,0,5.73,10.5,4.914,4.914,0,0,0,8.416,12.08v4.036a.492.492,0,0,0,.274.443l8.262,4.275V23.92A4.965,4.965,0,1,0,21.734,25.5a4.914,4.914,0,0,0-2.686-1.582V20.834l8.262-4.275a.492.492,0,0,0,.274-.443V12.08a4.971,4.971,0,0,0-1.048-9.83ZM6.6,7.221A2.869,2.869,0,1,1,9.464,10.09,2.872,2.872,0,0,1,6.6,7.221ZM20.869,28.779A2.869,2.869,0,1,1,18,25.91,2.872,2.872,0,0,1,20.869,28.779ZM26.536,10.1A2.869,2.869,0,1,1,29.4,7.228,2.872,2.872,0,0,1,26.536,10.1Z" transform="translate(391.5 3369.75) rotate(90)" fill="#2980b9"/></g></svg>