<svg xmlns="http://www.w3.org/2000/svg" width="33.683" height="28.253" viewBox="0 0 33.683 28.253"><g transform="translate(-725 -3372.75)"><path d="M24.712,19.515,18.937,13.74a3.662,3.662,0,0,0-4.212-.686L9.468,7.8V4.735L3.155,0,0,3.156,4.734,9.469H7.8l5.257,5.257a3.67,3.67,0,0,0,.686,4.212l5.775,5.775a1.834,1.834,0,0,0,2.6,0l2.6-2.6a1.843,1.843,0,0,0,0-2.6ZM16.358,11.1a5.189,5.189,0,0,1,3.694,1.529l.957.957a6.981,6.981,0,0,0,2.16-1.455,7.093,7.093,0,0,0,1.869-6.742.59.59,0,0,0-.991-.271L20.377,8.784l-3.349-.557-.557-3.349,3.669-3.669a.6.6,0,0,0-.281-1,7.1,7.1,0,0,0-6.737,1.869,6.989,6.989,0,0,0-2.032,5.109L15.14,11.24a5.373,5.373,0,0,1,1.218-.143Zm-5.124,4.044-2.8-2.8L.921,19.865a3.156,3.156,0,1,0,4.463,4.463l6.1-6.1a5.3,5.3,0,0,1-.247-3.092ZM3.155,23.278a1.184,1.184,0,1,1,1.184-1.184A1.187,1.187,0,0,1,3.155,23.278Z" transform="translate(725.004 3375.75)" fill="#2980b9"/><g transform="translate(737.788 3366.75)"><path d="M18,7.5V19.395" transform="translate(-4.553)" fill="none" stroke="#2c3e50" stroke-linecap="round" stroke-linejoin="round" stroke-width="3"/><path d="M7.5,18H19.395" transform="translate(0 -4.553)" fill="none" stroke="#2c3e50" stroke-linecap="round" stroke-linejoin="round" stroke-width="3"/></g></g></svg>