<svg xmlns="http://www.w3.org/2000/svg" width="60.911" height="47.708" viewBox="0 0 60.911 47.708"><g transform="translate(-1186.7 -1315.646)"><path d="M26.814,11.932,24.4,9.533a1.713,1.713,0,0,0-1.207-.5H20.485V4.795A2.553,2.553,0,0,0,17.925,2.25H9.389A2.553,2.553,0,0,0,6.828,4.795V9.036H4.121a1.714,1.714,0,0,0-1.207.5L.5,11.932a1.691,1.691,0,0,0-.5,1.2v4.386H6.828V16.67a.851.851,0,0,1,.854-.848H9.389a.851.851,0,0,1,.854.848v.848h6.828V16.67a.851.851,0,0,1,.854-.848h1.707a.851.851,0,0,1,.854.848v.848h6.828V13.131A1.691,1.691,0,0,0,26.814,11.932Zm-9.743-2.9H10.243V5.643h6.828Zm3.414,11.027a.851.851,0,0,1-.854.848H17.925a.851.851,0,0,1-.854-.848v-.848H10.243v.848a.851.851,0,0,1-.854.848H7.682a.851.851,0,0,1-.854-.848v-.848H0V24.3A1.7,1.7,0,0,0,1.707,26h23.9a1.7,1.7,0,0,0,1.707-1.7V19.214H20.485Z" transform="translate(1186.7 1322.25)" fill="#4dedff"/><path d="M28.742,9a2.857,2.857,0,0,0-2.867,2.868V18h-.562V5.61a2.857,2.857,0,0,0-2.867-2.868,2.813,2.813,0,0,0-2.758,2.812V18h-.562V2.868A2.857,2.857,0,0,0,16.258,0,2.813,2.813,0,0,0,13.5,2.813V18h-.562V5.681A2.857,2.857,0,0,0,10.07,2.813,2.813,2.813,0,0,0,7.313,5.625V22.218l-2.225-3.06A2.813,2.813,0,1,0,.538,22.467L9.369,34.61A3.375,3.375,0,0,0,12.1,36H25.992a3.375,3.375,0,0,0,3.285-2.6l1.864-7.921a13.5,13.5,0,0,0,.359-3.092V11.813A2.812,2.812,0,0,0,28.742,9Z" transform="matrix(0.799, 0.602, -0.602, 0.799, 1222.454, 1315.646)" fill="#fff"/></g></svg>